<?xml version="1.0" encoding="utf-8"?>
<!-- Generator: Adobe Illustrator 26.0.1, SVG Export Plug-In . SVG Version: 6.00 Build 0)  -->
<svg version="1.1" id="Layer_1" xmlns="http://www.w3.org/2000/svg" xmlns:xlink="http://www.w3.org/1999/xlink" x="0px" y="0px"
	 viewBox="0 0 1177 485" style="enable-background:new 0 0 1177 485;" xml:space="preserve">
<style type="text/css">
	.st0{fill:#4089C8;}
	.st1{fill:url(#SVGID_1_);}
	.st2{fill:url(#SVGID_00000077325319893079735650000016916037279850629566_);}
	.st3{fill:url(#SVGID_00000119815963216118150900000008095715257026641039_);}
	.st4{fill:url(#SVGID_00000150104719227487615560000002791393274411535549_);}
	.st5{fill:url(#SVGID_00000175312597012482772990000013809643465601884840_);}
</style>
<g>
	<g>
		<path class="st0" d="M333.5,366.6c-17.7,0-33.8-4.5-47.9-13.4c-14-8.8-25.3-21-33.3-36.1c-8.1-15.1-12.2-32.3-12.2-51.3
			c0-19,4.5-36.4,13.3-51.6c8.8-15.2,20.9-27.4,36-36.2c15.1-8.8,32.3-13.3,51.1-13.3c18.8,0,35.9,4.5,50.9,13.3
			c15,8.8,27,21,35.8,36.2c8.8,15.2,13.3,32.6,13.3,51.6v77.5c0,6.3-2.1,11.6-6.4,15.9s-9.6,6.4-15.9,6.4c-6.3,0-11.7-2.1-15.9-6.4
			c-4.2-4.2-6.4-9.5-6.4-15.9v-1.5c-4.5,4.2-9.4,8-14.6,11.4C367.3,362.1,351.2,366.6,333.5,366.6z M340.4,205.1
			c-10.7,0-20.5,2.6-29.1,7.9c-8.7,5.2-15.6,12.5-20.6,21.6c-5,9.1-7.6,19.7-7.6,31.3c0,11.4,2.6,21.9,7.6,31
			c5,9.1,12,16.4,20.6,21.6c8.6,5.2,18.4,7.9,29.1,7.9c10.9,0,20.8-2.6,29.3-7.8c8.5-5.2,15.4-12.5,20.3-21.6
			c4.9-9.1,7.4-19.6,7.4-31c0-11.7-2.5-22.2-7.4-31.4c-4.9-9.1-11.7-16.3-20.3-21.6C361.2,207.7,351.3,205.1,340.4,205.1z"/>
		<path class="st0" d="M333.5,362.1c-16.9,0-32.1-4.2-45.5-12.7c-13.4-8.4-24-19.9-31.8-34.4c-7.8-14.5-11.6-30.9-11.6-49.1
			c0-18.3,4.2-34.7,12.7-49.3c8.4-14.6,19.9-26.1,34.4-34.6c14.5-8.4,30.7-12.7,48.8-12.7c18.1,0,34.3,4.2,48.6,12.7
			c14.4,8.5,25.8,20,34.2,34.6c8.4,14.6,12.7,31,12.7,49.3h-13.5c0,18.3-3.9,34.7-11.6,49.1c-7.8,14.5-18.4,25.9-31.8,34.4
			C365.6,357.8,350.4,362.1,333.5,362.1z M340.4,330.8c11.8,0,22.3-2.8,31.6-8.5c9.3-5.7,16.6-13.4,21.9-23.3c5.3-9.8,8-20.9,8-33.2
			c0-12.5-2.7-23.7-8-33.5c-5.3-9.8-12.6-17.6-21.9-23.3c-9.3-5.7-19.8-8.5-31.6-8.5c-11.6,0-22.1,2.8-31.4,8.5
			c-9.4,5.7-16.8,13.4-22.2,23.3c-5.4,9.8-8.2,21-8.2,33.5c0,12.3,2.7,23.3,8.2,33.2c5.4,9.8,12.9,17.6,22.2,23.3
			C318.4,328,328.9,330.8,340.4,330.8z M418.2,361c-5.1,0-9.3-1.7-12.7-5c-3.4-3.4-5-7.6-5-12.7v-53.1l6.6-36.8l28.8,12.5v77.5
			c0,5.1-1.7,9.3-5,12.7C427.6,359.3,423.3,361,418.2,361z"/>
		<path class="st0" d="M506.1,365.2c-6.7,0-12.1-1.9-16-5.6c-3.9-3.8-5.9-9.2-5.9-16.3V188c0-6.8,2-12.2,5.8-16
			c3.9-3.9,9.3-5.8,16-5.8c7,0,12.4,1.9,16.2,5.7c3,3,4.8,7.1,5.4,12.1c4.2-3.6,8.7-6.8,13.7-9.6c12.2-6.8,25.8-10.3,40.4-10.3
			c14.9,0,25.9,2.5,33.6,7.5c10.6,7,11.2,15.2,9.7,20.9c-0.9,4.1-2.7,7.4-5.4,9.8c-2.6,2.3-5.6,3.7-8.9,4.4c-1.3,0.2-2.6,0.4-4,0.4
			c-2,0-4-0.2-6.1-0.7c-7.7-1.6-15-2.3-21.8-2.3c-5.7,0-11.2,0.6-16.2,1.6c-10.9,2.4-19.5,6.7-25.7,13c-6,6.1-9,13.7-9,23.2v101.4
			c0,6.7-1.9,12.1-5.6,16C518.6,363.2,513.1,365.2,506.1,365.2z"/>
		<path class="st0" d="M506.1,360.7c-5.6,0-9.8-1.4-12.9-4.3c-3-2.9-4.5-7.2-4.5-13V188c0-5.6,1.5-9.8,4.5-12.9
			c3-3,7.3-4.5,12.9-4.5c5.8,0,10.1,1.4,13,4.3c2.9,2.9,4.3,7.2,4.3,13v155.3c0,5.6-1.4,9.8-4.3,12.9
			C516.2,359.2,511.9,360.7,506.1,360.7z M505.8,241.9c0-13.9,3.4-26.3,10.2-37.3c6.8-11,16-19.7,27.6-26.2
			c11.6-6.5,24.3-9.7,38.2-9.7s24.3,2.3,31.1,6.8c6.8,4.5,9.4,9.9,7.8,16.2c-0.7,3.2-2,5.7-4,7.5c-2,1.7-4.2,2.8-6.8,3.3
			c-2.6,0.5-5.3,0.3-8.3-0.3c-14.8-3-28.1-3.2-39.9-0.7c-11.8,2.6-21.1,7.3-28,14.2c-6.8,6.9-10.2,15.7-10.2,26.4H505.8z"/>
		<path class="st0" d="M787.6,367.5c-0.6,0-1.1,0-1.7-0.1c-5.8-0.4-10.6-3-14.4-7.7l-63.1-78l-12.3,10.9v51.1c0,6.3-2,11.5-6,15.5
			s-9.2,6-15.5,6c-6.3,0-11.5-2-15.5-6c-4-4-6-9.2-6-15.5V106.4c0-6.3,2-11.5,6-15.5c4-4,9.2-6,15.5-6c6.3,0,11.5,2,15.5,6
			c4,4,6,9.2,6,15.5v131.3l76.9-68.6c4-3.7,8.7-5.7,13.8-5.7c0.4,0,0.7,0,1.1,0c5.5,0.3,10.2,2.7,14,7c4.1,4.4,6,9.3,5.7,14.7
			c-0.3,5.4-2.6,10.1-7,14.2L740,253.4l64.5,79.4c3.8,4.6,5.4,9.7,5,15.2c-0.4,5.5-3.2,10.4-8.1,14.4
			C797.2,365.8,792.6,367.5,787.6,367.5z"/>
		<path class="st0" d="M674.6,360.7c-5.1,0-9.2-1.6-12.3-4.7c-3.1-3.1-4.7-7.2-4.7-12.3V106.4c0-5.1,1.6-9.2,4.7-12.3
			c3.1-3.1,7.2-4.7,12.3-4.7c5.1,0,9.2,1.6,12.3,4.7c3.1,3.1,4.7,7.2,4.7,12.3v237.2c0,5.1-1.6,9.2-4.7,12.3
			C683.8,359.1,679.6,360.7,674.6,360.7z M690.9,291.2l-21.5-23.6L776,172.4c3.5-3.2,7.3-4.7,11.6-4.5c4.3,0.2,7.9,2.1,10.9,5.6
			c3.2,3.5,4.7,7.3,4.5,11.5c-0.2,4.2-2.1,7.9-5.6,11.1L690.9,291.2z M798.5,358.9c-3.7,3-7.8,4.3-12.3,4c-4.5-0.3-8.3-2.4-11.3-6.1
			l-70.5-87.2l24.3-22.9l72.2,88.9c3,3.7,4.3,7.7,4,12C804.6,351.9,802.5,355.7,798.5,358.9z"/>
		<path class="st0" d="M917,366.6c-17.7,0-33.8-4.5-47.9-13.4c-14-8.8-25.3-21-33.3-36.1c-8.1-15.1-12.2-32.3-12.2-51.3
			c0-19,4.5-36.4,13.3-51.6c8.8-15.2,20.9-27.4,36-36.2c15.1-8.8,32.3-13.3,51.1-13.3c18.8,0,35.9,4.5,50.9,13.3
			c15,8.8,27,21,35.8,36.2c8.8,15.2,13.3,32.6,13.3,51.6v77.5c0,6.3-2.1,11.6-6.4,15.9c-4.2,4.2-9.6,6.4-15.9,6.4
			c-6.3,0-11.7-2.1-15.9-6.4c-4.2-4.2-6.4-9.5-6.4-15.9v-1.5c-4.5,4.2-9.4,8-14.6,11.4C950.8,362.1,934.7,366.6,917,366.6z
			 M923.9,205.1c-10.7,0-20.5,2.6-29.1,7.9c-8.7,5.2-15.6,12.5-20.6,21.6c-5,9.1-7.6,19.7-7.6,31.3c0,11.4,2.6,21.9,7.6,31
			c5,9.1,12,16.4,20.6,21.6c8.6,5.2,18.4,7.9,29.1,7.9c10.9,0,20.8-2.6,29.3-7.8c8.5-5.2,15.4-12.5,20.3-21.6
			c4.9-9.1,7.4-19.6,7.4-31c0-11.7-2.5-22.2-7.4-31.4c-4.9-9.1-11.7-16.3-20.3-21.6C944.7,207.7,934.8,205.1,923.9,205.1z"/>
		<path class="st0" d="M917,362.1c-16.9,0-32.1-4.2-45.5-12.7c-13.4-8.4-24-19.9-31.8-34.4c-7.8-14.5-11.6-30.9-11.6-49.1
			c0-18.3,4.2-34.7,12.7-49.3c8.4-14.6,19.9-26.1,34.4-34.6c14.5-8.4,30.7-12.7,48.8-12.7c18.1,0,34.3,4.2,48.6,12.7
			c14.4,8.5,25.8,20,34.2,34.6c8.4,14.6,12.7,31,12.7,49.3h-13.5c0,18.3-3.9,34.7-11.6,49.1c-7.8,14.5-18.4,25.9-31.8,34.4
			C949.1,357.8,933.9,362.1,917,362.1z M923.9,330.8c11.8,0,22.3-2.8,31.6-8.5c9.3-5.7,16.6-13.4,21.9-23.3c5.3-9.8,8-20.9,8-33.2
			c0-12.5-2.7-23.7-8-33.5c-5.3-9.8-12.6-17.6-21.9-23.3c-9.3-5.7-19.8-8.5-31.6-8.5c-11.6,0-22.1,2.8-31.4,8.5
			c-9.4,5.7-16.8,13.4-22.2,23.3c-5.4,9.8-8.2,21-8.2,33.5c0,12.3,2.7,23.3,8.2,33.2c5.4,9.8,12.9,17.6,22.2,23.3
			C901.9,328,912.3,330.8,923.9,330.8z M1001.7,361c-5.1,0-9.3-1.7-12.7-5c-3.4-3.4-5-7.6-5-12.7v-53.1l6.6-36.8l28.8,12.5v77.5
			c0,5.1-1.7,9.3-5,12.7C1011,359.3,1006.8,361,1001.7,361z"/>
		<path class="st0" d="M1141.3,365.2c-12.4,0-23.7-3.2-33.7-9.6c-9.9-6.3-17.8-15-23.5-25.8c-5.6-10.8-8.5-23-8.5-36.5V212h-11.5
			c-6,0-11-1.8-14.9-5.4c-4-3.6-6-8.3-6-13.7c0-5.9,2-10.8,6-14.4c3.8-3.6,8.8-5.4,14.9-5.4h11.5v-45.5c0-6.3,2.1-11.6,6.2-15.7
			c4.1-4.1,9.4-6.2,15.7-6.2c6.3,0,11.6,2.1,15.7,6.2c4.1,4.1,6.2,9.4,6.2,15.7v45.5h25c6,0,11,1.8,14.9,5.4c4,3.7,6,8.5,6,14.4
			c0,5.5-2,10.1-6,13.7c-3.9,3.6-8.9,5.4-14.9,5.4h-25v81.3c0,8.3,2.2,15,6.6,20.4c4.2,5.2,9.2,7.7,15.3,7.7h11.8
			c5.5,0,10.2,2.1,13.9,6.4c3.6,4.1,5.5,9.3,5.5,15.5c0,6.5-2.5,11.8-7.3,15.9c-4.6,3.9-10.6,5.9-17.7,5.9H1141.3z"/>
		<path class="st0" d="M1064.2,207.5c-4.9,0-8.8-1.4-11.8-4.2c-3-2.8-4.5-6.3-4.5-10.4c0-4.6,1.5-8.3,4.5-11.1
			c3-2.8,6.9-4.2,11.8-4.2h80.2c4.9,0,8.8,1.4,11.8,4.2c3,2.8,4.5,6.5,4.5,11.1c0,4.2-1.5,7.6-4.5,10.4c-3,2.8-6.9,4.2-11.8,4.2
			H1064.2z M1141.3,360.7c-11.6,0-22-3-31.3-8.9c-9.3-5.9-16.6-13.9-21.9-24.1c-5.3-10.2-8-21.6-8-34.4V127.6
			c0-5.1,1.6-9.3,4.9-12.5c3.2-3.2,7.4-4.9,12.5-4.9c5.1,0,9.3,1.6,12.5,4.9c3.2,3.2,4.9,7.4,4.9,12.5v165.7c0,9.3,2.5,17,7.6,23.3
			c5.1,6.3,11.3,9.4,18.8,9.4h11.8c4.2,0,7.7,1.6,10.6,4.9c2.9,3.2,4.3,7.4,4.3,12.5c0,5.1-1.9,9.3-5.7,12.5
			c-3.8,3.2-8.7,4.9-14.8,4.9H1141.3z"/>
	</g>
	<g>
		<linearGradient id="SVGID_1_" gradientUnits="userSpaceOnUse" x1="169.4909" y1="45.4874" x2="103.3179" y2="213.8223">
			<stop  offset="0" style="stop-color:#3F88C8"/>
			<stop  offset="0.2972" style="stop-color:#3D8CC7"/>
			<stop  offset="0.5831" style="stop-color:#3897C5"/>
			<stop  offset="0.8635" style="stop-color:#2FABC1"/>
			<stop  offset="1" style="stop-color:#29B7BE"/>
		</linearGradient>
		<path class="st1" d="M107.9,362.9C9.3,358.6,4.4,261.8,4.4,261.8V129.9c1-89,81.4-118,129.6-125.4c10.2-1.6,18.9-2.2,25.2-2.2
			c35.7,0,35.1,30.8,35.1,30.8L194,52.9l-0.4,48.7c-1.6,28.5-10.8,50.4-23.5,67.3c-6.3,8.4-13.5,15.5-21.1,21.6
			C116.2,216.6,76.3,223,68.6,224c-0.9,0.1-1.3,0.2-1.3,0.2c-0.1,0-0.1-2.1-0.1-5.5c0.1-4.8,0.2-12.2,0.4-20
			c0.4-17.6,11.5-33.1,28-39.2h0c48.3-16.9,53.1-72.4,52.6-97.9c-0.1-8-0.8-13.1-0.8-13.1c-0.8,0-1.7,0.1-2.5,0.1
			c-38.1,1.7-61,17.8-74.6,35.1c-1.1,1.3-2.1,2.7-3,4.1c-10.9,15.6-16.6,34.4-16.6,53.5v108.3c0,2.7-0.2,5.4-0.3,8
			c-0.9,14.5,6.8,31,19.5,42.9c4.7,4.4,10,8.2,15.9,11c9.4,4.6,20.2,6.8,31.6,5.2c38.8-5.5,52.4-32.7,55.5-61
			c3.1-28.3-19.7-55.5-19.7-55.5l30.8-31.4c9.3,6.2,32.7,38.2,36.4,72.1C223.8,274.7,206.5,367.2,107.9,362.9z"/>
		
			<linearGradient id="SVGID_00000140719915085353718960000006873907021478946688_" gradientUnits="userSpaceOnUse" x1="182.0419" y1="50.4212" x2="115.8689" y2="218.7561">
			<stop  offset="0" style="stop-color:#3F88C8"/>
			<stop  offset="0.2972" style="stop-color:#3D8CC7"/>
			<stop  offset="0.5831" style="stop-color:#3897C5"/>
			<stop  offset="0.8635" style="stop-color:#2FABC1"/>
			<stop  offset="1" style="stop-color:#29B7BE"/>
		</linearGradient>
		<path style="fill:url(#SVGID_00000140719915085353718960000006873907021478946688_);" d="M107.9,362.9
			C9.3,358.6,4.4,261.8,4.4,261.8v-81.3c0.1-0.1,0.2-0.2,0.3-0.2c8-6.7,13.9-11.7,13.9-11.7v0.2c0,4,1.2,79.2,46.8,128.2
			c1,1.1,2.1,2.2,3.2,3.3c6.2,6.2,11.9,9.7,17.1,11.2c9.4,4.6,20.2,6.8,31.6,5.2c38.8-5.5,52.4-32.7,55.5-61
			c3.1-28.3-19.7-55.5-19.7-55.5l30.8-31.4c9.3,6.2,32.7,38.2,36.4,72.1C223.8,274.7,206.5,367.2,107.9,362.9z"/>
		
			<linearGradient id="SVGID_00000141440513616536004750000016503201898243852204_" gradientUnits="userSpaceOnUse" x1="120.2871" y1="26.1452" x2="54.1141" y2="194.4801">
			<stop  offset="0" style="stop-color:#3F88C8"/>
			<stop  offset="0.2972" style="stop-color:#3D8CC7"/>
			<stop  offset="0.5831" style="stop-color:#3897C5"/>
			<stop  offset="0.8635" style="stop-color:#2FABC1"/>
			<stop  offset="1" style="stop-color:#29B7BE"/>
		</linearGradient>
		<path style="fill:url(#SVGID_00000141440513616536004750000016503201898243852204_);" d="M194.2,33.1L194,52.9
			c-13.5-3.1-28.7-4.8-46-4.4c-0.2,0-0.4,0-0.6,0c-0.8,0-1.7,0.1-2.5,0.1c-31.9,1.7-57.5,17.6-77.7,39.1c-22.5,24-38.3,55-48.7,81
			c-5.1,12.8-8.9,24.5-11.6,33.4c-1,3.5-1.9,6.5-2.6,9.1v-81.4c1-89,81.4-118,129.6-125.4c10.2-1.6,18.9-2.2,25.2-2.2
			C194.8,2.3,194.2,33.1,194.2,33.1z"/>
	</g>
	
		<linearGradient id="SVGID_00000019649552514892392970000015206021854696900260_" gradientUnits="userSpaceOnUse" x1="-62.2459" y1="386.7912" x2="175.6443" y2="185.3519">
		<stop  offset="0.4247" style="stop-color:#2CB5BC"/>
		<stop  offset="0.535" style="stop-color:#30B6B8"/>
		<stop  offset="0.6412" style="stop-color:#3BB8AD"/>
		<stop  offset="0.7457" style="stop-color:#4EBB99"/>
		<stop  offset="0.8485" style="stop-color:#69C07E"/>
		<stop  offset="0.9466" style="stop-color:#8AC65D"/>
	</linearGradient>
	<path style="fill:url(#SVGID_00000019649552514892392970000015206021854696900260_);" d="M107.9,362.9
		C9.3,358.6,4.4,261.8,4.4,261.8V170l0.8-0.4c0,0-0.6,3.9-0.5,10.7c0.1,5.6,0.6,13.1,2.3,21.9c4.6,24,17.9,58.1,54.3,91.2
		c1.4,1.3,2.8,2.5,4.1,3.6c1.5,1.2,3,2.4,4.4,3.4c4.7,4.4,10,8.2,15.9,11c9.4,4.6,20.2,6.8,31.6,5.2c38.8-5.5,52.4-32.7,55.5-61
		c3.1-28.3-19.7-55.5-19.7-55.5l30.8-31.4c9.3,6.2,32.7,38.2,36.4,72.1C223.8,274.7,206.5,367.2,107.9,362.9z"/>
	
		<linearGradient id="SVGID_00000075843103882738331320000010511973049885364645_" gradientUnits="userSpaceOnUse" x1="175.9442" y1="26.4029" x2="110.7045" y2="211.6371">
		<stop  offset="0" style="stop-color:#3F88C8"/>
		<stop  offset="0.1819" style="stop-color:#428AC4"/>
		<stop  offset="0.3569" style="stop-color:#4A91B9"/>
		<stop  offset="0.5291" style="stop-color:#579CA5"/>
		<stop  offset="0.6997" style="stop-color:#6AAC8A"/>
		<stop  offset="0.8676" style="stop-color:#83C067"/>
		<stop  offset="0.9111" style="stop-color:#8AC65D"/>
	</linearGradient>
	<path style="fill:url(#SVGID_00000075843103882738331320000010511973049885364645_);" d="M194.2,33.1L194,52.9l-0.4,48.7
		c-1.6,28.5-10.8,50.4-23.5,67.3c-6.3,8.4-13.5,15.5-21.1,21.6c-32.7,26.2-74.1,32.9-81.8,34c0.1-1.9,0-3.8,0-5.8
		c0.1-4.8,0.2-12.2,0.4-20c0.4-17.6,11.5-33.1,28-39.2h0c48.3-16.9,53.1-72.4,52.6-97.9c0.1-2.3,0.2-7.1-0.2-13.1
		c-0.8-14.1-3.7-34.8-14.1-44.1c10.2-1.6,18.9-2.2,25.2-2.2C194.8,2.3,194.2,33.1,194.2,33.1z"/>
	<g>
		<g>
			<path class="st0" d="M223.4,460.8c-1.5,0-2.8-0.5-3.8-1.6c-1.1-1.1-1.6-2.4-1.6-3.9c0-1.5,0.5-2.8,1.6-3.9
				c1.1-1.1,2.4-1.6,3.8-1.6c1.5,0,2.8,0.5,3.9,1.6c1.1,1.1,1.6,2.4,1.6,3.9c0,1.5-0.5,2.8-1.6,3.9
				C226.2,460.2,224.9,460.8,223.4,460.8z M223.4,446.1c-1.2,0-2.1-0.4-2.9-1.2c-0.8-0.8-1.1-1.8-1.1-2.8V403c0-1.2,0.4-2.1,1.1-2.9
				c0.8-0.8,1.7-1.2,2.9-1.2c1.2,0,2.1,0.4,2.9,1.2c0.8,0.8,1.1,1.8,1.1,2.9V442c0,1.1-0.4,2.1-1.2,2.9
				C225.4,445.7,224.5,446.1,223.4,446.1z"/>
		</g>
		<g>
			<path class="st0" d="M291.1,454.6c0,5.4-2,10.1-5.9,14.1c-4,3.9-8.7,5.9-14.1,5.9c-5.3,0-9.8-1.5-13.6-4.4
				c-4.2-3.2-6.2-7.3-6.2-12.3c0-6.4,2-10.3,6.1-11.9c0.2,1.8,0.5,4.5,1.1,8.2c0.5,3,1.4,5.3,2.8,7c1.7,1.9,4.1,2.9,7.4,2.9
				c3.3,0,5.9-1,7.7-2.9c1.8-1.9,2.7-4.6,2.7-7.9c0-1.1-0.1-2.8-0.3-5.1c-0.2-2.3-0.3-4-0.2-5c0.2-4.1,1.7-6.8,4.5-8.1l8.1-3.7
				V454.6z M274.9,424.2c0,3.4-1.7,5.1-5,5.1c-3.3,0-5-1.7-5-5.1c0-3.3,1.7-5,5-5C273.3,419.2,274.9,420.9,274.9,424.2z"/>
		</g>
		<g>
			<path class="st0" d="M422.7,454.6H304.8v-66.3l6.7,4.3c2.2,1.8,3.3,4,3.3,6.5v43.9h107.9V454.6z"/>
		</g>
		<g>
			<path class="st0" d="M475.9,449.9c0,3.2-1.8,4.8-5.5,4.8h-56.2l7-11.7h10.6c0-3.3,0-4.6,0-4c0.1-1.8,0.7-2.9,1.7-3.4l8.3-4.2
				v11.6h7.3c0-1.2,0-2.5,0-4.1l-0.1-3c0-2.3,0.5-4,1.7-4.9c0.3-0.3,3.1-1.7,8.4-4.3v16.2h7.2c0-1.2,0-2.9-0.1-5.1
				c-0.1-2.2-0.1-3.9-0.1-5.1c0-2.5,0.6-4.2,1.7-5.2c0.6-0.5,3.4-2,8.4-4.5V449.9z"/>
		</g>
		<g>
			<path class="st0" d="M526,383.6c-2.4,1.2-5,1.8-7.8,1.8c-1,0-2.4-0.4-4.3-1.3c-1.9-0.8-3.3-1.3-4.3-1.3c-2.2,0-4.4,0.5-6.6,1.5
				v-4.6c2.1-1.2,4.3-1.8,6.6-1.8c1,0,2.6,0.5,4.6,1.5c2,1,3.7,1.5,5,1.5c2.5,0,4.7-0.6,6.8-1.8V383.6z M517.3,454.6h-10v-54.9
				c0-2.7,1.1-4.9,3.3-6.8c2.3-1.6,4.5-3.1,6.7-4.6V454.6z"/>
		</g>
		<g>
			<path class="st0" d="M562.4,454.6h-10v-54.9c0-2.7,1.1-4.9,3.3-6.8c2.3-1.6,4.5-3.1,6.7-4.6V454.6z"/>
		</g>
		<g>
			<path class="st0" d="M724.4,454.6H603.1c0,0.6,0,1.7,0.1,3c0.1,1.4,0.1,2.4,0.1,3c0,4.4-1.3,7.9-3.8,10.4
				c-2.5,2.5-6,3.8-10.4,3.8c-3.4,0-6.8-1.1-10.3-3.3c-2.5-1.6-3.9-4.5-4.2-8.8h18.6v-8.2h-18.7v-10.4c0-8.9,3.1-15.4,9.3-19.4
				c1.7-1.1,4.2-1.8,7.6-2.2c3.4-0.4,5.5-0.8,6.5-1.3l5.2-2.9v24.6h121.3V454.6z M593,442.9v-9.8c-2.3,0-4.4,0.8-6.1,2.5
				c-1.7,1.7-2.6,3.6-2.6,6c0,0.4,0,0.8,0.1,1.4H593z"/>
		</g>
		<g>
			<path class="st0" d="M752.5,449.7c0,1.2-0.6,2.4-1.8,3.4c-1.2,1-2.4,1.6-3.6,1.6h-31.4l7-11.7h19.9c0-6.2,0.4-9.8,1.1-11
				c0.5-0.8,3.4-3.2,8.8-7.2V449.7z"/>
		</g>
		<g>
			<path class="st0" d="M722.3,459.8l-0.1,2.1c-3.1,3-4.7,6.1-4.7,9.2c0,0.5,0.1,1.1,0.2,1.8c2.2,1.2,3.3,2.9,3.3,4.9
				c0,1.3-0.3,2.4-1,3.3c-0.8,1-1.8,1.6-3,1.6c-3,0-4.6-2.3-4.6-6.8c0-3.1,1-6.1,3.1-9C716.9,465.1,719.1,462.7,722.3,459.8z"/>
		</g>
		<g>
			<path class="st0" d="M793.1,460.3c0,3.4-1.1,6.1-3.3,8.1c-2.2,2-4.9,3-8.3,3c-3.4,0-6.3-1-8.7-2.9c-2.5-2-3.9-4.7-4.2-8.2h12.8
				v-16.9c0-3.5,1.1-6.1,3.2-7.8c0.4-0.3,3.2-1.8,8.4-4.4V460.3z"/>
		</g>
		<g>
			<path class="st0" d="M907.8,454.6H802.4v-66.3l6.7,4.3c2.2,1.8,3.3,4,3.3,6.5v43.9h95.5V454.6z"/>
		</g>
		<g>
			<path class="st0" d="M931.8,449.7c0,1.2-0.6,2.4-1.8,3.4c-1.2,1-2.4,1.6-3.6,1.6h-31.4l7-11.7h19.9c0-6.2,0.4-9.8,1.1-11
				c0.5-0.8,3.4-3.2,8.8-7.2V449.7z"/>
		</g>
		<g>
			<path class="st0" d="M898.2,469.5c0,3.4-1.7,5.1-5.1,5.1c-3.3,0-5-1.7-5-5.1c0-3.3,1.7-5,5-5
				C896.5,464.5,898.2,466.2,898.2,469.5z"/>
		</g>
		<g>
			<path class="st0" d="M976.5,462.8c0,3.7-1.4,6.7-4.3,8.9c-2.7,2.1-5.9,3.1-9.7,3.1c-3.4,0-6.8-1.1-10.3-3.3
				c-2.5-1.6-3.9-4.5-4.2-8.8h18.6v-8.2h-18.7v-10.4c0-8.9,3.1-15.4,9.3-19.4c1.6-1,4-1.7,7.3-2c3.4-0.4,5.7-0.9,6.8-1.5l5.2-2.9
				V462.8z M966.5,442.9v-9.8c-2.3,0-4.4,0.8-6.1,2.5c-1.7,1.7-2.6,3.6-2.6,6c0,0.4,0,0.8,0.1,1.4H966.5z"/>
		</g>
		<g>
			<path class="st0" d="M1006.4,460.3c0,3.4-1.1,6.1-3.3,8.1c-2.2,2-4.9,3-8.3,3c-3.4,0-6.3-1-8.7-2.9c-2.5-2-3.9-4.7-4.2-8.2h12.8
				v-16.9c0-3.5,1.1-6.1,3.2-7.8c0.4-0.3,3.2-1.8,8.4-4.4V460.3z"/>
		</g>
		<g>
			<path class="st0" d="M1108.4,454.6h-87.2v-66.3l6.7,4.3c2.2,1.8,3.3,4,3.3,6.5v43.9h77.2V454.6z"/>
		</g>
		<g>
			<path class="st0" d="M1172.6,449.7c0,1.4-0.5,2.6-1.4,3.5c-0.9,0.9-2.2,1.4-3.6,1.4h-71.7l7-11.7h59.7c0-3.6-0.2-5.9-0.5-6.8
				c-0.8-2-2.6-3-5.4-3h-45.6c-0.3-0.9-0.5-1.8-0.5-2.8c0-3,0.8-4.8,2.3-5.5l51.7-24.3l-1.3,3.2l-23,12.8c-2.9,1.6-4.3,2.8-4.3,3.6
				c0,0.8,0.3,1.5,0.9,2.1c0.6,0.6,1.3,0.9,2,0.9h23.6c2.5,0,4.7,0.9,6.7,2.7c1.5,1.4,2.4,2.3,2.6,2.7c0.5,0.7,0.7,2,0.7,3.9V449.7z
				"/>
		</g>
	</g>
</g>
</svg>
