<?xml version="1.0" encoding="utf-8"?>
<!-- Generator: Adobe Illustrator 26.0.1, SVG Export Plug-In . SVG Version: 6.00 Build 0)  -->
<svg version="1.1" id="Layer_1" xmlns="http://www.w3.org/2000/svg" xmlns:xlink="http://www.w3.org/1999/xlink" x="0px" y="0px"
	 viewBox="0 0 309 495" style="enable-background:new 0 0 309 495;" xml:space="preserve">
<style type="text/css">
	.st0{fill:url(#SVGID_1_);}
	.st1{fill:url(#SVGID_00000181776929819484000640000010872183519655719305_);}
	.st2{fill:url(#SVGID_00000176022486251958311620000018237294368865463720_);}
	.st3{fill:url(#SVGID_00000176014451130732710180000001991087975572335530_);}
	.st4{fill:url(#SVGID_00000159434656689344719660000001555763562730046091_);}
</style>
<g>
	<g>
		<linearGradient id="SVGID_1_" gradientUnits="userSpaceOnUse" x1="228.8098" y1="68.7936" x2="142.5939" y2="288.1146">
			<stop  offset="0" style="stop-color:#3F88C8"/>
			<stop  offset="0.2972" style="stop-color:#3D8CC7"/>
			<stop  offset="0.5831" style="stop-color:#3897C5"/>
			<stop  offset="0.8635" style="stop-color:#2FABC1"/>
			<stop  offset="1" style="stop-color:#29B7BE"/>
		</linearGradient>
		<path class="st0" d="M148.6,482.3C20.1,476.7,13.7,350.6,13.7,350.6V178.7C15,62.7,119.7,25,182.5,15.3c13.3-2,24.6-2.8,32.8-2.8
			c46.6,0,45.8,40.2,45.8,40.2l-0.2,25.7l-0.6,63.4c-2.1,37.1-14,65.7-30.7,87.7c-8.3,10.9-17.7,20.2-27.5,28.2
			c-42.7,34.1-94.6,42.4-104.7,43.7c-1.1,0.2-1.7,0.2-1.7,0.2c-0.1,0-0.2-2.7-0.1-7.2c0.1-6.3,0.3-16,0.6-26.1
			c0.6-22.9,15-43.1,36.5-51.1h0c63-22,69.2-94.3,68.5-127.5c-0.2-10.4-1.1-17-1.1-17c-1.1,0-2.2,0.1-3.3,0.1
			c-49.7,2.2-79.5,23.2-97.3,45.7c-1.4,1.7-2.7,3.5-3.9,5.3c-14.2,20.3-21.6,44.8-21.6,69.7v141.1c0,3.5-0.2,7-0.4,10.4
			c-1.1,18.9,8.8,40.4,25.4,55.9c6.1,5.7,13,10.7,20.7,14.4c12.3,6,26.3,8.8,41.1,6.7c50.6-7.2,68.3-42.6,72.3-79.5
			c4-36.9-25.7-72.3-25.7-72.3l40.1-41c12.1,8,42.6,49.8,47.4,94C299.6,367.5,277.1,487.9,148.6,482.3z"/>
		
			<linearGradient id="SVGID_00000076584519863060601280000014803343031534629563_" gradientUnits="userSpaceOnUse" x1="245.1623" y1="75.2218" x2="158.9465" y2="294.5428">
			<stop  offset="0" style="stop-color:#3F88C8"/>
			<stop  offset="0.2972" style="stop-color:#3D8CC7"/>
			<stop  offset="0.5831" style="stop-color:#3897C5"/>
			<stop  offset="0.8635" style="stop-color:#2FABC1"/>
			<stop  offset="1" style="stop-color:#29B7BE"/>
		</linearGradient>
		<path style="fill:url(#SVGID_00000076584519863060601280000014803343031534629563_);" d="M148.6,482.3
			C20.1,476.7,13.7,350.6,13.7,350.6v-106c0.1-0.1,0.2-0.2,0.4-0.3c10.4-8.8,18.1-15.2,18.1-15.2v0.2c0,5.2,1.6,103.2,60.9,167.1
			c1.3,1.5,2.7,2.9,4.1,4.3c8,8,15.5,12.7,22.3,14.6c12.3,6,26.3,8.8,41.1,6.7c50.6-7.2,68.3-42.6,72.3-79.5
			c4-36.9-25.7-72.3-25.7-72.3l40.1-41c12.1,8,42.6,49.8,47.4,94C299.6,367.5,277.1,487.9,148.6,482.3z"/>
		
			<linearGradient id="SVGID_00000072971560891141537390000012363955866564785556_" gradientUnits="userSpaceOnUse" x1="164.7029" y1="43.5929" x2="78.4871" y2="262.9139">
			<stop  offset="0" style="stop-color:#3F88C8"/>
			<stop  offset="0.2972" style="stop-color:#3D8CC7"/>
			<stop  offset="0.5831" style="stop-color:#3897C5"/>
			<stop  offset="0.8635" style="stop-color:#2FABC1"/>
			<stop  offset="1" style="stop-color:#29B7BE"/>
		</linearGradient>
		<path style="fill:url(#SVGID_00000072971560891141537390000012363955866564785556_);" d="M261,52.7l-0.2,25.7
			c-17.5-4.1-37.4-6.3-60-5.7c-0.3,0-0.6,0-0.8,0c-1.1,0-2.2,0.1-3.3,0.1c-41.6,2.2-74.9,23-101.2,51
			c-29.3,31.3-49.9,71.7-63.4,105.5c-6.7,16.7-11.6,31.9-15.1,43.5c-1.3,4.5-2.4,8.5-3.3,11.9V178.7C15,62.7,119.7,25,182.5,15.3
			c13.3-2,24.6-2.8,32.8-2.8C261.8,12.5,261,52.7,261,52.7z"/>
	</g>
	
		<linearGradient id="SVGID_00000152961499679442431720000017098309740670921860_" gradientUnits="userSpaceOnUse" x1="-73.1167" y1="513.4733" x2="236.827" y2="251.021">
		<stop  offset="0.4247" style="stop-color:#2CB5BC"/>
		<stop  offset="0.535" style="stop-color:#30B6B8"/>
		<stop  offset="0.6412" style="stop-color:#3BB8AD"/>
		<stop  offset="0.7457" style="stop-color:#4EBB99"/>
		<stop  offset="0.8485" style="stop-color:#69C07E"/>
		<stop  offset="0.9466" style="stop-color:#8AC65D"/>
	</linearGradient>
	<path style="fill:url(#SVGID_00000152961499679442431720000017098309740670921860_);" d="M148.6,482.3
		C20.1,476.7,13.7,350.6,13.7,350.6V231l1.1-0.6c0,0-0.8,5.1-0.7,13.9c0.1,7.3,0.7,17,3,28.6c6,31.3,23.4,75.7,70.7,118.9
		c1.8,1.7,3.6,3.2,5.3,4.7c2,1.6,3.9,3.1,5.8,4.5c6.1,5.7,13,10.7,20.7,14.4c12.3,6,26.3,8.8,41.1,6.7c50.6-7.2,68.3-42.6,72.3-79.5
		c4-36.9-25.7-72.3-25.7-72.3l40.1-41c12.1,8,42.6,49.8,47.4,94C299.6,367.5,277.1,487.9,148.6,482.3z"/>
	
		<linearGradient id="SVGID_00000080906048897253551610000013175697844655756935_" gradientUnits="userSpaceOnUse" x1="237.2177" y1="43.9287" x2="152.2179" y2="285.2675">
		<stop  offset="0" style="stop-color:#3F88C8"/>
		<stop  offset="0.1819" style="stop-color:#428AC4"/>
		<stop  offset="0.3569" style="stop-color:#4A91B9"/>
		<stop  offset="0.5291" style="stop-color:#579CA5"/>
		<stop  offset="0.6997" style="stop-color:#6AAC8A"/>
		<stop  offset="0.8676" style="stop-color:#83C067"/>
		<stop  offset="0.9111" style="stop-color:#8AC65D"/>
	</linearGradient>
	<path style="fill:url(#SVGID_00000080906048897253551610000013175697844655756935_);" d="M261,52.7l-0.2,25.7l-0.6,63.4
		c-2.1,37.1-14,65.7-30.7,87.7c-8.3,10.9-17.7,20.2-27.5,28.2c-42.7,34.1-96.5,42.9-106.5,44.3c0.1-2.5,0-5,0-7.5
		c0.1-6.3,0.3-16,0.6-26.1c0.6-22.9,15-43.1,36.5-51.1h0c63-22,69.2-94.3,68.5-127.5c0.1-2.9,0.2-9.2-0.2-17
		c-1-18.4-4.8-45.4-18.3-57.4c13.3-2,24.6-2.8,32.8-2.8C261.8,12.5,261,52.7,261,52.7z"/>
</g>
</svg>
